<?xml version="1.0" encoding="utf-8"?>
<!-- Generator: Adobe Illustrator 13.0.2, SVG Export Plug-In . SVG Version: 6.00 Build 14948)  -->
<!DOCTYPE svg PUBLIC "-//W3C//DTD SVG 1.1//EN" "http://www.w3.org/Graphics/SVG/1.1/DTD/svg11.dtd">
<svg version="1.1" id="Ebene_1" xmlns="http://www.w3.org/2000/svg" xmlns:xlink="http://www.w3.org/1999/xlink" x="0px" y="0px"
	 width="120.54px" height="106.59px" viewBox="0 0 120.54 106.59" enable-background="new 0 0 120.54 106.59" xml:space="preserve">
<path d="M44.647,22.182V5.002h2.273v7.055h8.93V5.002h2.273v17.18H55.85v-8.098h-8.93v8.098H44.647z"/>
<path d="M56.639,55.861l2.273,0.574c-0.477,1.867-1.334,3.291-2.572,4.271s-2.752,1.471-4.541,1.471
	c-1.852,0-3.357-0.377-4.518-1.131s-2.043-1.846-2.648-3.275s-0.908-2.965-0.908-4.605c0-1.789,0.342-3.35,1.025-4.682
	s1.656-2.344,2.918-3.035s2.65-1.037,4.166-1.037c1.719,0,3.164,0.438,4.336,1.313s1.988,2.105,2.449,3.691l-2.238,0.527
	c-0.398-1.25-0.977-2.16-1.734-2.73s-1.711-0.855-2.859-0.855c-1.32,0-2.424,0.316-3.311,0.949s-1.51,1.482-1.869,2.549
	s-0.539,2.166-0.539,3.299c0,1.461,0.213,2.736,0.639,3.826s1.088,1.904,1.986,2.443s1.871,0.809,2.918,0.809
	c1.273,0,2.352-0.367,3.234-1.102S56.327,57.307,56.639,55.861z"/>
<rect x="50.53" y="24.49" width="1.7" height="17.65"/>
<path d="M44.647,101.588v-17.18h2.273v7.055h8.93v-7.055h2.273v17.18H55.85V93.49h-8.93v8.098H44.647z"/>
<rect x="50.53" y="64.49" width="1.7" height="17.649"/>
<path d="M82.635,53.518c0-2.852,0.766-5.084,2.297-6.697s3.508-2.42,5.93-2.42c1.586,0,3.016,0.379,4.289,1.137
	s2.244,1.814,2.912,3.17s1.002,2.893,1.002,4.611c0,1.742-0.352,3.301-1.055,4.676s-1.699,2.416-2.988,3.123
	s-2.68,1.061-4.172,1.061c-1.617,0-3.063-0.391-4.336-1.172s-2.238-1.848-2.895-3.199S82.635,55.025,82.635,53.518z M84.979,53.553
	c0,2.07,0.557,3.701,1.67,4.893s2.51,1.787,4.189,1.787c1.711,0,3.119-0.602,4.225-1.805s1.658-2.91,1.658-5.121
	c0-1.398-0.236-2.619-0.709-3.662s-1.164-1.852-2.074-2.426s-1.932-0.861-3.064-0.861c-1.609,0-2.994,0.553-4.154,1.658
	S84.979,50.967,84.979,53.553z"/>
<path d="M102.065,61.885v-17.18h2.273v7.055h8.93v-7.055h2.273v17.18h-2.273v-8.098h-8.93v8.098H102.065z"/>
<rect x="61.28" y="51.59" width="19.05" height="1.7"/>
<path d="M4.999,61.885v-17.18h2.273v7.055h8.93v-7.055h2.273v17.18h-2.273v-8.098h-8.93v8.098H4.999z"/>
<rect x="20.83" y="51.59" width="20.6" height="1.7"/>
</svg>
