<!-- Generator: Adobe Illustrator 12.0.1, SVG Export Plug-In . SVG Version: 6.00 Build 51448)  -->

<svg xmlns:rdf="http://www.w3.org/1999/02/22-rdf-syntax-ns#" style="enable-background:new 0 0 70.45 128.034;" xmlns="http://www.w3.org/2000/svg" xml:space="preserve" height="128.034" viewBox="0 0 70.45 128.034" width="70.45" version="1.1" xmlns:cc="http://creativecommons.org/ns#" xmlns:dc="http://purl.org/dc/elements/1.1/"><metadata><rdf:RDF><cc:Work rdf:about=""><dc:format>image/svg+xml</dc:format><dc:type rdf:resource="http://purl.org/dc/dcmitype/StillImage"/><dc:title/></cc:Work></rdf:RDF></metadata>
<path fill="#231f20" d="M34.40625,22.21875v25.8125l-32.65625,18.84375v38.6875l33.4375,19.28125,33.5-19.28125v-38.6875l-32.625-18.84375v-25.8125h-1.65625zm0.78125,27.21875l31.875,18.40625v36.75l-31.875,18.375-31.8125-18.375v-36.75l31.8125-18.40625z" transform="translate(0,-1.0641084e-6)"/>
<path fill="#231f20" d="M7.4137498,70.634702h1.6150001v31.160948h-1.6150001v-31.160948z"/>
<path fill="#231f20" d="M61.80125,101.08315l0.8075,1.425-26.98,15.58-0.8075-1.425,26.98-15.58z"/>
<path fill="#231f20" d="M34.82125,55.72065l0.8075-1.3775,26.98,15.57905-0.8075,1.37845-26.98-15.58z"/>
<path d="m27.41695,11.8639c0-2.71035,0.7277-4.83075,2.1831-6.3631,1.4554-1.5333,3.3345-2.29995,5.63635-2.29995,1.50765,0,2.86615,0.36005,4.07645,1.08015,1.2103,0.72105,2.1337,1.72425,2.7683,3.01245s0.9519,2.7493,0.9519,4.3814c0,1.65585-0.3344,3.1369-1.00225,4.44315s-1.615,2.29615-2.8405,2.9678c-1.22455,0.67165-2.54695,1.00795-3.96435,1.00795-1.5371,0-2.9108-0.37145-4.1211-1.1134s-2.12705-1.75655-2.7512-3.04-0.9367-2.6429-0.9367-4.07645zm2.2268,0.02755c0,1.9665,0.52915,3.51595,1.58745,4.64835s2.3864,1.69765,3.9824,1.69765c1.6264,0,2.96495-0.5719,4.0166-1.71475,1.04975-1.14285,1.5751-2.7645,1.5751-4.86495,0-1.3281-0.2242-2.48805-0.67355-3.4789s-1.10675-1.7594-1.9722-2.3047c-0.8645-0.5453-1.8354-0.81795-2.9127-0.81795-1.5295,0-2.8462,0.52535-3.94915,1.5751s-1.65395,2.8044-1.65395,5.26015z" fill="#231f20"/><path d="m45.8935,19.81065,0-16.32765,2.16695,0,0,6.70985,8.44645,0,0-6.70985,2.16695,0,0,16.3286-2.16695,0,0-7.6893-8.44645,0,0,7.6893-2.16695,0,0-0.00095z" fill="#231f20"/>
</svg>

